<svg xmlns="http://www.w3.org/2000/svg" xmlns:xlink="http://www.w3.org/1999/xlink" width="48" zoomAndPan="magnify" viewBox="0 0 36 36.000001" height="48" preserveAspectRatio="xMidYMid meet" version="1.2"><defs><clipPath id="8afbf6c365"><path d="M 2.238281 0 L 33.617188 0 L 33.617188 35 L 2.238281 35 Z M 2.238281 0 "/></clipPath></defs><g id="cd50459a15"><g clip-rule="nonzero" clip-path="url(#8afbf6c365)"><path style=" stroke:none;fill-rule:nonzero;fill:#876039;fill-opacity:1;" d="M 32.996094 22.558594 C 32.695312 22.054688 31.464844 20.566406 28.246094 22.441406 L 22.65625 25.699219 C 22.425781 25.835938 22.191406 25.933594 21.949219 26.003906 C 22.027344 25.855469 22.089844 25.691406 22.136719 25.519531 C 22.433594 24.417969 21.78125 23.273438 20.652344 22.90625 C 20.628906 22.898438 20.605469 22.894531 20.582031 22.890625 C 18.976562 22.601562 17.394531 22.027344 16.121094 21.566406 C 15.679688 21.40625 15.261719 21.257812 14.902344 21.140625 C 13.449219 20.667969 12.140625 21.25 11.050781 21.878906 L 6.945312 24.257812 L 6.582031 23.617188 C 6.402344 23.296875 6.105469 23.066406 5.75 22.96875 C 5.394531 22.871094 5.019531 22.914062 4.699219 23.097656 L 3.132812 23.984375 C 2.46875 24.359375 2.234375 25.203125 2.609375 25.867188 L 7.222656 34.015625 C 7.402344 34.335938 7.699219 34.566406 8.054688 34.667969 C 8.179688 34.699219 8.304688 34.71875 8.429688 34.71875 C 8.664062 34.71875 8.894531 34.65625 9.105469 34.539062 L 10.671875 33.652344 C 11.335938 33.277344 11.570312 32.433594 11.195312 31.769531 L 10.75 30.980469 L 11.625 30.476562 L 18.761719 32.390625 C 19.160156 32.496094 19.558594 32.550781 19.953125 32.550781 C 20.746094 32.550781 21.511719 32.332031 22.210938 31.902344 L 32.359375 25.652344 C 33.3125 25.066406 33.613281 23.589844 32.996094 22.558594 Z M 10.125 32.679688 L 8.554688 33.570312 C 8.472656 33.617188 8.394531 33.605469 8.355469 33.59375 C 8.3125 33.582031 8.238281 33.550781 8.191406 33.46875 L 3.582031 25.316406 C 3.507812 25.191406 3.554688 25.027344 3.679688 24.957031 L 5.25 24.066406 C 5.296875 24.042969 5.339844 24.035156 5.378906 24.035156 C 5.40625 24.035156 5.433594 24.039062 5.453125 24.042969 C 5.492188 24.054688 5.566406 24.085938 5.613281 24.167969 L 10.226562 32.316406 C 10.296875 32.445312 10.25 32.609375 10.125 32.679688 Z M 19.660156 27.054688 L 20.355469 27.167969 C 21.410156 27.335938 22.34375 27.171875 23.214844 26.664062 L 28.808594 23.40625 C 30.382812 22.488281 31.59375 22.382812 32.039062 23.128906 C 32.34375 23.640625 32.210938 24.433594 31.773438 24.703125 L 21.625 30.953125 C 20.835938 31.4375 19.96875 31.558594 19.050781 31.3125 L 11.6875 29.339844 C 11.546875 29.300781 11.394531 29.324219 11.265625 29.394531 L 10.199219 30.011719 L 7.492188 25.226562 L 11.609375 22.84375 C 12.53125 22.3125 13.523438 21.863281 14.558594 22.199219 C 14.898438 22.3125 15.289062 22.453125 15.742188 22.617188 C 17.042969 23.085938 18.660156 23.671875 20.339844 23.980469 C 20.894531 24.175781 21.199219 24.707031 21.058594 25.230469 C 20.875 25.917969 20.296875 26.003906 19.835938 25.953125 C 19.015625 25.78125 18.234375 25.558594 17.410156 25.324219 C 17.015625 25.210938 16.609375 25.097656 16.191406 24.984375 C 15.894531 24.90625 15.589844 25.082031 15.511719 25.378906 C 15.429688 25.675781 15.605469 25.980469 15.902344 26.0625 C 16.3125 26.171875 16.714844 26.285156 17.105469 26.394531 C 17.957031 26.640625 18.765625 26.871094 19.636719 27.050781 M 5.675781 25.589844 C 5.71875 25.894531 5.507812 26.179688 5.203125 26.222656 C 4.894531 26.269531 4.609375 26.054688 4.566406 25.75 C 4.519531 25.445312 4.734375 25.160156 5.039062 25.113281 C 5.34375 25.070312 5.628906 25.28125 5.675781 25.589844 Z M 13.898438 8.863281 C 14.15625 9.367188 14.285156 9.617188 14.320312 9.828125 C 14.359375 10.039062 14.324219 10.320312 14.253906 10.878906 C 14.234375 11.019531 14.214844 11.179688 14.195312 11.355469 C 14.078125 12.324219 14.605469 13.238281 15.503906 13.621094 C 15.667969 13.691406 15.8125 13.753906 15.945312 13.808594 C 15.96875 13.820312 15.992188 13.828125 16.011719 13.839844 L 13.941406 18.289062 C 13.855469 18.476562 13.878906 18.699219 14.003906 18.863281 C 14.128906 19.027344 14.339844 19.109375 14.542969 19.074219 L 16.820312 18.675781 L 17.980469 20.675781 C 18.082031 20.847656 18.265625 20.953125 18.464844 20.953125 C 18.472656 20.953125 18.480469 20.953125 18.488281 20.949219 C 18.695312 20.941406 18.882812 20.816406 18.96875 20.628906 L 21.027344 16.210938 L 20.984375 16.191406 C 21.335938 16.085938 21.546875 16.03125 21.714844 16.03125 C 21.929688 16.03125 22.199219 16.117188 22.738281 16.28125 C 22.796875 16.300781 22.855469 16.320312 22.917969 16.339844 L 24.402344 19.785156 C 24.484375 19.976562 24.667969 20.105469 24.875 20.121094 C 24.886719 20.121094 24.902344 20.121094 24.914062 20.121094 C 25.105469 20.121094 25.285156 20.023438 25.390625 19.859375 L 26.609375 17.894531 L 28.871094 18.355469 C 29.078125 18.398438 29.285156 18.324219 29.417969 18.164062 C 29.546875 18 29.578125 17.78125 29.496094 17.589844 L 27.808594 13.671875 C 27.847656 13.65625 27.886719 13.640625 27.929688 13.621094 C 28.828125 13.238281 29.351562 12.328125 29.238281 11.355469 C 29.214844 11.179688 29.195312 11.019531 29.179688 10.878906 C 29.109375 10.320312 29.074219 10.039062 29.109375 9.828125 C 29.148438 9.617188 29.277344 9.367188 29.535156 8.863281 C 29.597656 8.738281 29.671875 8.59375 29.75 8.4375 C 30.191406 7.5625 30.011719 6.527344 29.296875 5.859375 C 29.167969 5.738281 29.050781 5.628906 28.945312 5.53125 C 28.53125 5.148438 28.324219 4.953125 28.21875 4.769531 C 28.113281 4.585938 28.046875 4.308594 27.921875 3.757812 C 27.890625 3.621094 27.855469 3.464844 27.816406 3.292969 C 27.59375 2.339844 26.785156 1.664062 25.808594 1.609375 C 25.632812 1.597656 25.472656 1.589844 25.332031 1.585938 C 24.765625 1.554688 24.484375 1.542969 24.285156 1.46875 C 24.082031 1.394531 23.855469 1.226562 23.40625 0.882812 C 23.292969 0.796875 23.167969 0.703125 23.023438 0.59375 C 22.242188 0.0078125 21.191406 0.0078125 20.40625 0.59375 C 20.265625 0.703125 20.136719 0.796875 20.023438 0.882812 C 19.574219 1.226562 19.347656 1.394531 19.148438 1.46875 C 18.949219 1.542969 18.664062 1.554688 18.101562 1.585938 C 17.957031 1.589844 17.800781 1.597656 17.621094 1.609375 C 16.644531 1.664062 15.839844 2.339844 15.617188 3.292969 C 15.574219 3.464844 15.539062 3.621094 15.507812 3.757812 C 15.382812 4.308594 15.320312 4.585938 15.214844 4.769531 C 15.105469 4.953125 14.898438 5.148438 14.484375 5.53125 C 14.378906 5.628906 14.265625 5.738281 14.132812 5.859375 C 13.421875 6.527344 13.238281 7.5625 13.679688 8.4375 C 13.761719 8.59375 13.832031 8.734375 13.898438 8.863281 Z M 18.410156 19.191406 L 17.589844 17.777344 C 17.472656 17.578125 17.242188 17.46875 17.011719 17.511719 L 15.402344 17.789062 L 16.992188 14.375 C 17.125 14.523438 17.269531 14.75 17.511719 15.125 C 17.589844 15.246094 17.675781 15.378906 17.773438 15.527344 C 18.1875 16.160156 18.871094 16.519531 19.59375 16.519531 C 19.613281 16.519531 19.632812 16.515625 19.652344 16.515625 Z M 26.449219 16.722656 C 26.222656 16.675781 25.988281 16.777344 25.867188 16.976562 L 25.003906 18.363281 L 24.195312 16.488281 C 24.78125 16.390625 25.3125 16.054688 25.65625 15.527344 C 25.753906 15.378906 25.839844 15.246094 25.917969 15.125 C 26.226562 14.652344 26.378906 14.414062 26.542969 14.277344 C 26.605469 14.222656 26.683594 14.171875 26.789062 14.121094 L 28.050781 17.050781 Z M 14.898438 6.671875 C 15.027344 6.550781 15.140625 6.445312 15.242188 6.347656 C 16.230469 5.429688 16.296875 5.320312 16.597656 4.007812 C 16.628906 3.871094 16.660156 3.71875 16.703125 3.546875 C 16.8125 3.074219 17.199219 2.75 17.683594 2.722656 C 17.859375 2.710938 18.015625 2.703125 18.15625 2.699219 C 19.503906 2.628906 19.621094 2.585938 20.699219 1.773438 C 20.808594 1.6875 20.933594 1.59375 21.074219 1.488281 C 21.269531 1.34375 21.492188 1.269531 21.714844 1.269531 C 21.9375 1.269531 22.160156 1.34375 22.355469 1.488281 C 22.496094 1.59375 22.621094 1.6875 22.734375 1.773438 C 23.808594 2.585938 23.929688 2.628906 25.277344 2.699219 C 25.417969 2.703125 25.574219 2.710938 25.746094 2.722656 C 26.234375 2.75 26.617188 3.074219 26.730469 3.546875 C 26.769531 3.71875 26.804688 3.871094 26.835938 4.007812 C 27.136719 5.320312 27.199219 5.429688 28.1875 6.347656 C 28.292969 6.445312 28.40625 6.550781 28.535156 6.671875 C 28.886719 7.003906 28.976562 7.5 28.757812 7.933594 C 28.675781 8.089844 28.605469 8.230469 28.542969 8.355469 C 27.925781 9.554688 27.902344 9.679688 28.070312 11.019531 C 28.089844 11.15625 28.109375 11.3125 28.128906 11.488281 C 28.1875 11.96875 27.9375 12.40625 27.488281 12.597656 C 27.328125 12.667969 27.183594 12.726562 27.054688 12.78125 C 25.8125 13.304688 25.714844 13.386719 24.980469 14.519531 C 24.90625 14.640625 24.820312 14.769531 24.726562 14.917969 C 24.457031 15.324219 23.984375 15.496094 23.519531 15.355469 C 23.351562 15.304688 23.203125 15.257812 23.070312 15.21875 C 21.777344 14.820312 21.652344 14.820312 20.363281 15.21875 C 20.230469 15.257812 20.078125 15.304688 19.910156 15.355469 C 19.445312 15.496094 18.972656 15.324219 18.707031 14.917969 C 18.609375 14.769531 18.527344 14.640625 18.449219 14.519531 C 17.71875 13.386719 17.621094 13.304688 16.375 12.78125 C 16.246094 12.726562 16.105469 12.667969 15.941406 12.597656 C 15.496094 12.40625 15.242188 11.96875 15.300781 11.488281 C 15.320312 11.3125 15.339844 11.15625 15.359375 11.019531 C 15.527344 9.679688 15.503906 9.554688 14.890625 8.355469 C 14.824219 8.230469 14.753906 8.089844 14.675781 7.933594 C 14.457031 7.5 14.542969 7.003906 14.898438 6.671875 Z M 21.714844 13.449219 C 24.535156 13.449219 26.828125 11.15625 26.828125 8.335938 C 26.828125 5.519531 24.535156 3.226562 21.714844 3.226562 C 18.898438 3.226562 16.605469 5.519531 16.605469 8.335938 C 16.605469 11.15625 18.898438 13.449219 21.714844 13.449219 Z M 21.714844 4.339844 C 23.917969 4.339844 25.710938 6.132812 25.710938 8.335938 C 25.710938 10.539062 23.917969 12.332031 21.714844 12.332031 C 19.511719 12.332031 17.71875 10.539062 17.71875 8.335938 C 17.71875 6.132812 19.511719 4.339844 21.714844 4.339844 Z M 20.296875 10.3125 L 18.863281 8.878906 C 18.644531 8.660156 18.644531 8.308594 18.863281 8.089844 C 19.078125 7.871094 19.433594 7.871094 19.648438 8.089844 L 20.710938 9.148438 L 23.800781 6.34375 C 24.027344 6.136719 24.382812 6.152344 24.589844 6.382812 C 24.796875 6.609375 24.777344 6.960938 24.550781 7.167969 L 21.066406 10.332031 C 20.957031 10.425781 20.824219 10.476562 20.691406 10.476562 C 20.546875 10.476562 20.40625 10.421875 20.296875 10.3125 Z M 20.296875 10.3125 "/></g></g></svg>